<svg width="15" height="15" viewBox="0 0 15 15" fill="none" xmlns="http://www.w3.org/2000/svg">
<path d="M2.74707 8.20918C3.23956 8.97884 4.34517 9.7444 5.30212 10.0633C7.40335 9.98732 11.6438 8.85569 11.7957 4.93677C10.4286 7.15445 7.58057 7.68356 6.32742 7.6709C5.38004 7.6709 4.04784 6.82639 3.31816 6.30793C3.09226 6.1473 2.76519 6.29426 2.74707 6.5711L2.66334 7.85272C2.65249 7.97743 2.68183 8.10234 2.74707 8.20918Z" fill="#FFA516" stroke="#754600" stroke-linecap="round" stroke-linejoin="round"/>
<path d="M8.56329 13.5619C11.981 12.8784 15.1396 9.29494 14.3279 5.6811L14.0312 4.3342V1.60007L11.9806 1.2583C11.9806 5.6811 10.9553 9.11893 6.51235 9.80247C4.46996 10.1169 2.51198 9.67054 1 8.80382L1.3862 11.1695C2.06973 12.8784 5.14563 14.2454 8.56329 13.5619Z" fill="#FFD600" stroke="#754600" stroke-linecap="round" stroke-linejoin="round"/>
</svg>
