<svg width="15" height="15" viewBox="0 0 15 15" fill="none" xmlns="http://www.w3.org/2000/svg">
<path d="M12.2529 8.20918C11.7604 8.97884 10.6548 9.7444 9.69788 10.0633C7.59665 9.98732 3.3562 8.85569 3.20432 4.93677C4.57137 7.15445 7.41943 7.68356 8.67258 7.6709C9.61996 7.6709 10.9522 6.82639 11.6818 6.30793C11.9077 6.1473 12.2348 6.29426 12.2529 6.5711L12.3367 7.85272C12.3475 7.97743 12.3182 8.10234 12.2529 8.20918Z" fill="#FFA516" stroke="#754600" stroke-linecap="round" stroke-linejoin="round"/>
<path d="M6.43671 13.5619C3.01904 12.8784 -0.139567 9.29494 0.672129 5.6811L0.968782 4.3342V1.60007L3.01938 1.2583C3.01938 5.6811 4.04468 9.11893 8.48765 9.80247C10.53 10.1169 12.488 9.67054 14 8.80382L13.6138 11.1695C12.9303 12.8784 9.85437 14.2454 6.43671 13.5619Z" fill="#FFD600" stroke="#754600" stroke-linecap="round" stroke-linejoin="round"/>
</svg>
