<?xml version="1.0" encoding="UTF-8" standalone="no"?>
<!DOCTYPE svg PUBLIC "-//W3C//DTD SVG 1.1//EN" "http://www.w3.org/Graphics/SVG/1.1/DTD/svg11.dtd">
<svg width="100%" height="100%" viewBox="0 0 15 15" version="1.1" xmlns="http://www.w3.org/2000/svg" xmlns:xlink="http://www.w3.org/1999/xlink" xml:space="preserve" xmlns:serif="http://www.serif.com/" style="fill-rule:evenodd;clip-rule:evenodd;stroke-linejoin:round;stroke-miterlimit:2;">
    <g transform="matrix(0.805583,0,0,0.805583,1.45813,2.78735)">
        <path d="M11.688,5.661C11.688,3.323 9.79,1.425 7.452,1.425C5.114,1.425 3.216,3.323 3.216,5.661L3.216,11.438L11.688,11.438L11.688,5.661Z" style="fill:rgb(255,51,81);"/>
    </g>
    <g transform="matrix(0.805583,0,0,0.805583,1.45813,2.78735)">
        <path d="M12.929,5.661C12.929,2.638 10.475,0.184 7.452,0.184C4.429,0.184 1.974,2.638 1.974,5.661L1.974,11.438C1.974,12.123 2.53,12.679 3.216,12.679L11.688,12.679C12.374,12.679 12.929,12.123 12.929,11.438L12.929,5.661ZM11.688,5.661C11.688,3.323 9.79,1.425 7.452,1.425C5.114,1.425 3.216,3.323 3.216,5.661L3.216,11.438L11.688,11.438L11.688,5.661Z"/>
    </g>
    <g transform="matrix(0.790661,0,0,0.790661,1.81217,3.28186)">
        <path d="M6.859,1.509C6.859,1.509 3.698,1.856 3.357,5.271C3.322,5.618 3.576,5.928 3.923,5.963C4.27,5.998 4.58,5.744 4.615,5.397C4.851,3.035 7.005,2.766 7.005,2.766C7.351,2.725 7.6,2.411 7.56,2.065C7.52,1.718 7.206,1.469 6.859,1.509Z" style="fill:white;"/>
    </g>
    <g transform="matrix(0.732642,0,0,0.732642,1.90643,2.94952)">
        <path d="M14.147,12.689L1.122,12.689L0.847,14.345L14.422,14.345L14.147,12.689Z" style="fill:rgb(234,234,234);"/>
    </g>
    <g transform="matrix(0.732642,0,0,0.732642,1.90643,2.94952)">
        <path d="M15.494,12.466C15.384,11.807 14.815,11.324 14.147,11.324L1.122,11.324C0.455,11.324 -0.115,11.807 -0.224,12.466L-0.499,14.122C-0.565,14.517 -0.453,14.922 -0.194,15.228C0.065,15.534 0.446,15.71 0.847,15.71L14.422,15.71C14.823,15.71 15.204,15.534 15.464,15.228C15.723,14.922 15.835,14.517 15.769,14.122L15.494,12.466ZM14.147,12.689L1.122,12.689L0.847,14.345L14.422,14.345L14.147,12.689Z"/>
    </g>
    <g transform="matrix(0.965926,-0.258819,0.258819,0.965926,-1.31563,0.981609)">
        <path d="M1.062,4.023L1.944,4.904C2.139,5.099 2.456,5.099 2.651,4.904C2.846,4.709 2.846,4.392 2.651,4.197L1.769,3.316C1.574,3.12 1.257,3.12 1.062,3.316C0.867,3.511 0.867,3.828 1.062,4.023Z"/>
    </g>
    <g transform="matrix(1,0,0,1,-0.315184,0.36104)">
        <path d="M6.164,1.823L5.615,0.57C5.504,0.318 5.209,0.202 4.956,0.313C4.704,0.424 4.588,0.719 4.699,0.972L5.248,2.224C5.358,2.477 5.653,2.592 5.906,2.482C6.159,2.371 6.274,2.076 6.164,1.823Z"/>
    </g>
    <g transform="matrix(-0.965926,-0.258819,-0.258819,0.965926,16.3156,0.981609)">
        <path d="M1.769,3.316L2.651,4.197C2.846,4.392 2.846,4.709 2.651,4.904C2.456,5.099 2.139,5.099 1.944,4.904L1.062,4.023C0.867,3.828 0.867,3.511 1.062,3.316C1.257,3.12 1.574,3.12 1.769,3.316Z"/>
    </g>
    <g transform="matrix(-1,0,0,1,15.3152,0.36104)">
        <path d="M5.248,2.224L4.699,0.972C4.588,0.719 4.704,0.424 4.956,0.313C5.209,0.202 5.504,0.318 5.615,0.57L6.164,1.823C6.274,2.076 6.159,2.371 5.906,2.482C5.653,2.592 5.358,2.477 5.248,2.224Z"/>
    </g>
</svg>
