<?xml version="1.0" encoding="UTF-8" standalone="no"?>
<!DOCTYPE svg PUBLIC "-//W3C//DTD SVG 1.1//EN" "http://www.w3.org/Graphics/SVG/1.1/DTD/svg11.dtd">
<svg width="100%" height="100%" viewBox="0 0 21 21" version="1.1" xmlns="http://www.w3.org/2000/svg" xmlns:xlink="http://www.w3.org/1999/xlink" xml:space="preserve" xmlns:serif="http://www.serif.com/" style="fill-rule:evenodd;clip-rule:evenodd;">
    <path d="M13.919,5.735L14.033,5.949L14.273,5.992L18.945,6.82C20.127,7.03 20.596,8.474 19.763,9.338L16.47,12.754L16.301,12.929L16.335,13.17L16.991,17.869C17.157,19.058 15.928,19.951 14.849,19.425L10.583,17.349L10.364,17.243L10.145,17.349L5.879,19.425C4.799,19.951 3.571,19.058 3.737,17.869L4.393,13.17L4.426,12.929L4.257,12.754L0.965,9.338C0.132,8.474 0.601,7.03 1.783,6.82L6.455,5.992L6.694,5.949L6.809,5.735L9.04,1.547C9.605,0.488 11.123,0.488 11.688,1.547L13.919,5.735Z" style="fill:none;fill-rule:nonzero;stroke:black;stroke-width:1px;"/>
</svg>
