<svg width="21" height="21" viewBox="0 0 21 21" fill="none" xmlns="http://www.w3.org/2000/svg">
<path d="M13.9188 5.73463L14.0332 5.94935L14.2728 5.99182L18.9446 6.81999C20.1267 7.02953 20.5959 8.47365 19.7628 9.33797L16.47 12.754L16.3011 12.9292L16.3348 13.1701L16.9908 17.8692C17.1568 19.0582 15.9284 19.9507 14.8489 19.4254L10.5825 17.3494L10.3637 17.2429L10.145 17.3494L5.87858 19.4254C4.79912 19.9507 3.57068 19.0582 3.73666 17.8692L4.3927 13.1701L4.42634 12.9292L4.25749 12.754L0.964689 9.33797C0.131557 8.47365 0.60078 7.02953 1.78283 6.81999L6.45466 5.99182L6.69422 5.94935L6.80864 5.73463L9.03996 1.54738C9.60452 0.487938 11.123 0.487938 11.6875 1.54738L13.9188 5.73463Z" fill="#FFD600" stroke="black"/>
</svg>
