<?xml version="1.0" standalone="no"?>
<!DOCTYPE svg PUBLIC "-//W3C//DTD SVG 20010904//EN"
 "http://www.w3.org/TR/2001/REC-SVG-20010904/DTD/svg10.dtd">
<svg version="1.0" xmlns="http://www.w3.org/2000/svg"
 width="38.000000pt" height="38.000000pt" viewBox="0 0 38.000000 38.000000"
 preserveAspectRatio="xMidYMid meet">

<g transform="translate(0.000000,38.000000) scale(0.100000,-0.100000)"
fill="#000000" stroke="none">
<path d="M153 330 c-12 -14 -30 -20 -59 -20 -29 0 -44 -5 -48 -16 -9 -24 -7
-54 4 -54 6 0 10 -40 10 -99 0 -81 3 -100 16 -105 20 -8 198 -8 218 0 13 5 16
24 16 105 0 63 4 99 11 99 6 0 9 14 7 33 -3 30 -5 32 -48 35 -28 2 -51 11 -63
23 -23 24 -43 24 -64 -1z m155 -52 c3 -16 -8 -18 -122 -18 -102 0 -126 3 -126
14 0 22 17 25 135 23 96 -2 110 -4 113 -19z m-18 -138 l0 -90 -105 0 -105 0 0
90 0 90 105 0 105 0 0 -90z"/>
<path d="M120 146 c0 -36 5 -68 10 -71 6 -4 10 20 10 64 0 41 -4 71 -10 71 -6
0 -10 -28 -10 -64z"/>
<path d="M170 146 c0 -36 5 -68 10 -71 6 -4 10 20 10 64 0 41 -4 71 -10 71 -6
0 -10 -28 -10 -64z"/>
<path d="M224 196 c-9 -23 0 -121 11 -119 14 4 19 133 5 133 -6 0 -13 -6 -16
-14z"/>
</g>
</svg>
