<svg xmlns="http://www.w3.org/2000/svg" viewBox="0 0 695.67 204.31"><defs><style>.cls-1{fill:#1a1b1b;}.cls-2{fill:#1b1b1b;}.cls-3{fill:#f5cf21;}.cls-4{fill:#f5cf23;}.cls-5{fill:#f4da71;}.cls-6{fill:#a39c98;}.cls-7{fill:#9b938f;}.cls-8{fill:#edd885;}.cls-9{fill:#938b86;}.cls-10{fill:#fff;}</style></defs><title>자산 2</title><g id="레이어_2" data-name="레이어 2"><g id="레이어_1-2" data-name="레이어 1"><path class="cls-1" d="M114.35,198.37a73.82,73.82,0,0,1-26.56,5.43c-22,.57-44,.43-66,.43-8.25,0-15.83-1.58-20-10C-.09,190.28.14,186.11.13,182,.05,129.3.19,76.57,0,23.83,0,9.09,8.53,2.9,22.44,2.66c24.44-.43,49-1.23,73.34,1.61,13.3,1.55,26.35,5.06,37,13,12.06,9,21,20,20.54,37.22-1,33.63-.63,67.32-.1,101,.17,11.16-4.88,19.21-11.72,26.79-4.07,4.5-8.62,8.6-14.43,10.93A48.59,48.59,0,0,1,114.35,198.37Z"/><path class="cls-2" d="M406.26,1.33c17.27,0,23.11,7,27.28,17.09,3.74,9,6.5,18.5,9.76,27.75q9.51,27.06,19.1,54.08c2.22,6.25,1,12.81,1.76,19.2a122.24,122.24,0,0,0,20.58,55.42c2.5,3.65,6.5,6.33,7.28,11.41.74,4.83-.24,8.63-4,11.46-9.15,7-23.15,10-31.28-.86-4.08-5.46-5.51-12.22-7.76-18.54-2.53-7.07-5-14.18-7.16-21.36-.69-2.23-1.82-2.79-3.92-2.79q-30.24.06-60.47,0c-2.23,0-3,.88-3.7,3-3.39,10.44-7.39,20.66-10.53,31.19-2.37,7.94-7.35,13.5-16,15.09-8.33,1.51-15.38-.53-21.07-6.89-5.13-5.73-4.38-12.23-2.09-18.65,7.89-22.12,16.08-44.13,23.95-66.25,8.64-24.32,17.2-48.67,25.5-73.11,3-8.72,6.4-17.21,10.06-25.65,1.24-2.86,3.73-4.53,5.56-6.83A36.52,36.52,0,0,1,406.26,1.33Z"/><path class="cls-2" d="M313,100.92c.37,12.15-6.48,18.18-21.07,18.25-18.83.09-37.66.15-56.48-.09-4,0-5.1,1-5,5q.33,21.63,0,43.27c-.07,3.89,1.27,4.67,4.85,4.63,16.83-.17,33.65,0,50.48-.13,4,0,6.22.18,4.78,5.31-2.24,8-.78,16.12,1.19,24,.65,2.61.17,3.18-2.33,3.18-28.48-.08-57,0-85.46-.18-6.72,0-12.47-2.38-16.09-8.65-1.92-3.32-2.15-6.92-2.16-10.44q-.15-82.08-.07-164.16c0-12.25,8.27-18,21.35-18.25,31.48-.5,63-.35,94.45,0,6.85.07,13.77,1.3,18.56,7.61,3.14,4.13,4.18,8.45,2.28,13C320,28.44,316.56,32.78,310,33.34c-24.27,2.08-48.59.42-72.88.93-6.64.13-6.63,0-6.63,6.41,0,13.93.14,27.86-.09,41.79-.06,4.09,1.12,5.41,5.33,5.38,20.16-.17,40.32,0,60.47,0A18.69,18.69,0,0,1,311.1,96,11.87,11.87,0,0,1,313,100.92Z"/><path class="cls-3" d="M570.17,130.62c11,7.87,23.67,11.39,36.77,13.71,12.67,2.25,25.34,2.94,38,.1,8.32-1.86,15.88-5.4,23.16-9.66,3.42-2,6.83-4,10.76-4.92,6.81-1.6,12.18,1.14,15.19,7.57,2.43,5.18,2.29,9.57-2.2,13.86-3.55,3.4-6,7.85-9.84,11.12a56.79,56.79,0,0,1-11,10.92c-10.79,10.09-23.48,16.87-37.55,21.2-19.93,6.14-40.38,6.79-60.65,3.38-25.59-4.31-47.46-15.74-63.27-37.19-14.84-20.14-19.39-42.68-17.87-67.16,1.12-18,5.6-35,12.13-51.56,2.77-7-.86-13.24-1.87-19.73a116.17,116.17,0,0,1-.89-12.3c-.12-2.55,1.67-4,3.44-5.13A30.8,30.8,0,0,1,525,.22c3,.33,4.62,1.84,3.57,5.07a89.37,89.37,0,0,0-1.59,52c5.52,20.74,13,40.32,26.21,57.45C558.17,120.74,563.19,126.72,570.17,130.62Z"/><path class="cls-4" d="M561.5,70.61c2,0,3.19,1.56,4.63,2.61,12.14,8.88,25.24,15.68,40.16,18.68a85.18,85.18,0,0,0,43.3-2.34c2.63-.83,5.62-3.27,8,.4s4.53,7.61,2.17,12.44C655.34,111.53,647,116,638,117.16c-19.15,2.43-38,.56-54.16-11.56-10-7.47-15.74-18.13-20.74-29.17C562.34,74.71,559.9,73.13,561.5,70.61Z"/><path class="cls-5" d="M570.17,130.62c-.47.15-1.17.58-1.37.41-5.73-4.92-12.67-8.72-15.64-16.28Z"/><path class="cls-6" d="M313,100.92c-3-7.7-9.15-11.31-16.79-13.07C305.82,87.49,312.87,93,313,100.92Z"/><path class="cls-7" d="M406.26,1.33c-5.95.75-11.49,2.94-17.14,4.75C394,1.42,400,1,406.26,1.33Z"/><path class="cls-8" d="M671.08,173.32a78.16,78.16,0,0,1,11-10.92A22.8,22.8,0,0,1,671.08,173.32Z"/><path class="cls-9" d="M114.35,198.37c4.24-1.73,8.12-4.32,12.7-5.22C123.44,196.39,119.4,198.59,114.35,198.37Z"/><path class="cls-10" d="M45.37,103.52c0-21.21.11-42.42-.1-63.63,0-4,1.11-5.13,5-5,11,.36,22-.13,32.94.6,13.5.89,27.38,9.2,27.34,27.37-.07,27.67.23,55.35-.14,83-.18,14.23-10.11,22-22.18,24.51-13,2.69-26.21.9-39.31,1.51-3.45.15-3.65-1.56-3.64-4.24C45.4,146.28,45.37,124.9,45.37,103.52Z"/><path class="cls-10" d="M408,122.72c-6,0-12-.21-17.94.07-3.54.17-4.09-1.33-3.16-4.08,3.62-10.7,7.32-21.37,11-32,2.71-7.88,5.45-15.75,8.06-23.67.38-1.14.43-2.4,1.86-2.52,1.7-.14,1.41,1.33,1.77,2.4q9.34,27.67,18.81,55.32c1.19,3.47.44,4.77-3.43,4.59C419.34,122.52,413.68,122.72,408,122.72Z"/></g></g></svg>