<?xml version="1.0" encoding="UTF-8" standalone="no"?>
<!DOCTYPE svg PUBLIC "-//W3C//DTD SVG 1.1//EN" "http://www.w3.org/Graphics/SVG/1.1/DTD/svg11.dtd">
<svg width="100%" height="100%" viewBox="0 0 24 24" version="1.1" xmlns="http://www.w3.org/2000/svg" xmlns:xlink="http://www.w3.org/1999/xlink" xml:space="preserve" xmlns:serif="http://www.serif.com/" style="fill-rule:evenodd;clip-rule:evenodd;stroke-linejoin:round;stroke-miterlimit:2;">
    <g transform="matrix(1,0,0,1,1.80001,9.5)">
        <path d="M2.2,4.5C3.305,4.5 4.2,3.605 4.2,2.5C4.2,1.395 3.305,0.5 2.2,0.5C1.095,0.5 0.2,1.395 0.2,2.5C0.2,3.605 1.095,4.5 2.2,4.5Z" style="fill:rgb(255,214,0);"/>
    </g>
    <g transform="matrix(1,0,0,1,1.80001,9.5)">
        <path d="M10.2,4.5C11.305,4.5 12.2,3.605 12.2,2.5C12.2,1.395 11.305,0.5 10.2,0.5C9.095,0.5 8.2,1.395 8.2,2.5C8.2,3.605 9.095,4.5 10.2,4.5Z" style="fill:rgb(255,214,0);"/>
    </g>
    <g transform="matrix(1,0,0,1,1.80001,9.5)">
        <path d="M18.2,4.5C19.305,4.5 20.2,3.605 20.2,2.5C20.2,1.395 19.305,0.5 18.2,0.5C17.095,0.5 16.2,1.395 16.2,2.5C16.2,3.605 17.095,4.5 18.2,4.5Z" style="fill:rgb(255,214,0);"/>
    </g>
</svg>
