<?xml version="1.0" encoding="UTF-8" standalone="no"?>
<!DOCTYPE svg PUBLIC "-//W3C//DTD SVG 1.1//EN" "http://www.w3.org/Graphics/SVG/1.1/DTD/svg11.dtd">
<svg width="100%" height="100%" viewBox="0 0 24 24" version="1.1" xmlns="http://www.w3.org/2000/svg" xmlns:xlink="http://www.w3.org/1999/xlink" xml:space="preserve" xmlns:serif="http://www.serif.com/" style="fill-rule:evenodd;clip-rule:evenodd;stroke-linejoin:round;stroke-miterlimit:2;">
    <g transform="matrix(1,0,0,1,0.977041,1.86885)">
        <path d="M17.594,9.285L17.661,10.301C17.025,11.248 15.659,12.16 14.484,12.551C13.96,12.726 13.677,13.293 13.851,13.816C14.026,14.34 14.593,14.623 15.116,14.449C16.718,13.915 18.556,12.615 19.38,11.326C19.384,11.321 19.388,11.315 19.392,11.308C19.597,10.972 19.69,10.579 19.657,10.187C19.658,10.193 19.536,8.326 19.536,8.326C19.536,8.326 19.536,8.326 19.536,8.326C19.459,7.152 18.081,6.51 17.123,7.191C16.526,7.616 15.633,8.203 14.734,8.603C14.232,8.826 13.734,9 13.3,9C10.198,9 7.507,7.958 6.178,5.521C5.914,5.037 5.306,4.858 4.821,5.122C4.337,5.386 4.158,5.994 4.422,6.479C6.093,9.542 9.401,11 13.3,11C14.596,11 16.35,10.084 17.594,9.285Z"/>
    </g>
    <g transform="matrix(1,0,0,1,0.977041,1.86885)">
        <path d="M9.604,19.981C12.855,20.631 15.909,20.095 18.068,18.99C19.645,18.183 20.754,17.059 21.228,15.871C21.256,15.804 21.275,15.733 21.287,15.661L21.852,12.2C21.914,11.819 21.752,11.437 21.435,11.217C21.118,10.997 20.702,10.98 20.368,11.171C18.334,12.337 15.7,12.935 12.953,12.512C12.953,12.512 12.953,12.512 12.953,12.512C7.017,11.598 5.8,6.909 5.8,1C5.8,0.706 5.671,0.427 5.447,0.237C5.223,0.047 4.926,-0.035 4.636,0.014L1.636,0.514C1.154,0.594 0.8,1.011 0.8,1.5L0.8,5.391C0.8,5.391 0.39,7.255 0.39,7.255C-0.915,13.067 4.104,18.881 9.604,19.981ZM9.996,18.019C5.496,17.119 1.273,12.448 2.342,7.69L2.777,5.715C2.793,5.644 2.8,5.572 2.8,5.5L2.8,2.347C2.8,2.347 3.818,2.177 3.818,2.177C4.019,8.627 5.983,13.463 12.648,14.488C15.12,14.869 17.513,14.543 19.572,13.754C19.572,13.754 19.332,15.221 19.332,15.221C18.983,15.997 18.194,16.679 17.156,17.21C15.331,18.145 12.745,18.569 9.996,18.019L9.996,18.019Z"/>
    </g>
</svg>
