<?xml version="1.0" encoding="UTF-8" standalone="no"?>
<!DOCTYPE svg PUBLIC "-//W3C//DTD SVG 1.1//EN" "http://www.w3.org/Graphics/SVG/1.1/DTD/svg11.dtd">
<svg width="100%" height="100%" viewBox="0 0 24 24" version="1.1" xmlns="http://www.w3.org/2000/svg" xmlns:xlink="http://www.w3.org/1999/xlink" xml:space="preserve" xmlns:serif="http://www.serif.com/" style="fill-rule:evenodd;clip-rule:evenodd;stroke-linejoin:round;stroke-miterlimit:2;">
    <g transform="matrix(0.841081,0,0,0.841081,1.40238,1.90221)">
        <path d="M21.028,2.6C21.4,2.6 21.758,2.748 22.021,3.011C22.285,3.275 22.433,3.632 22.433,4.005L22.433,15.242C22.433,15.614 22.285,15.972 22.021,16.235C21.758,16.499 21.4,16.647 21.028,16.647L7.563,16.647C6.818,16.647 6.103,16.531 5.577,17.058L2.767,19.868L2.767,4.005C2.767,3.632 2.915,3.275 3.179,3.011C3.442,2.748 3.8,2.6 4.172,2.6L21.028,2.6ZM3.6,0.5C2.804,0.5 2.041,0.816 1.479,1.379C0.916,1.941 0.6,2.704 0.6,3.5L0.6,22.69C0.6,22.838 0.644,22.983 0.727,23.106C0.809,23.23 0.926,23.326 1.063,23.383C1.201,23.439 1.352,23.454 1.497,23.425C1.643,23.396 1.776,23.324 1.881,23.219L6.16,18.94C6.442,18.658 6.823,18.5 7.221,18.5L21.6,18.5C22.396,18.5 23.159,18.184 23.721,17.621C24.284,17.059 24.6,16.296 24.6,15.5L24.6,3.5C24.6,2.704 24.284,1.941 23.721,1.379C23.159,0.816 22.396,0.5 21.6,0.5L3.6,0.5Z" style="fill-rule:nonzero;"/>
    </g>
    <g transform="matrix(0.841081,0,0,0.841081,1.40238,1.90221)">
        <path d="M11.199,7.64C10.907,7.185 10.475,6.837 9.968,6.649C9.461,6.46 8.907,6.441 8.388,6.595C7.87,6.748 7.415,7.066 7.093,7.5C6.77,7.934 6.597,8.461 6.6,9.002C6.6,9.45 6.721,9.889 6.949,10.275C7.177,10.66 7.505,10.977 7.897,11.192C8.29,11.408 8.733,11.514 9.18,11.5C9.628,11.485 10.064,11.351 10.442,11.111C10.245,11.695 9.879,12.317 9.276,12.941C9.161,13.06 9.097,13.221 9.1,13.387C9.103,13.553 9.172,13.711 9.291,13.826C9.41,13.941 9.571,14.005 9.737,14.002C9.903,13.999 10.061,13.93 10.176,13.811C12.405,11.501 12.116,8.99 11.199,7.643L11.199,7.64ZM17.199,7.64C16.907,7.185 16.475,6.837 15.968,6.649C15.461,6.46 14.907,6.441 14.388,6.595C13.87,6.748 13.415,7.066 13.093,7.5C12.77,7.934 12.597,8.461 12.6,9.002C12.6,9.45 12.721,9.889 12.949,10.275C13.177,10.66 13.505,10.977 13.897,11.192C14.29,11.408 14.733,11.514 15.18,11.5C15.628,11.485 16.064,11.351 16.442,11.111C16.245,11.695 15.879,12.317 15.276,12.941C15.161,13.06 15.097,13.221 15.1,13.387C15.103,13.553 15.172,13.711 15.291,13.826C15.41,13.941 15.571,14.005 15.737,14.002C15.903,13.999 16.061,13.93 16.176,13.811C18.405,11.501 18.116,8.99 17.199,7.643L17.199,7.64Z" style="fill-rule:nonzero;"/>
    </g>
</svg>
