<?xml version="1.0" encoding="UTF-8" standalone="no"?>
<!DOCTYPE svg PUBLIC "-//W3C//DTD SVG 1.1//EN" "http://www.w3.org/Graphics/SVG/1.1/DTD/svg11.dtd">
<svg width="100%" height="100%" viewBox="0 0 24 24" version="1.1" xmlns="http://www.w3.org/2000/svg" xmlns:xlink="http://www.w3.org/1999/xlink" xml:space="preserve" xmlns:serif="http://www.serif.com/" style="fill-rule:evenodd;clip-rule:evenodd;stroke-linejoin:round;stroke-miterlimit:2;">
    <g transform="matrix(1,0,0,1,1,3.5)">
        <path d="M11,12.5C13.209,12.5 15,10.709 15,8.5C15,6.291 13.209,4.5 11,4.5C8.791,4.5 7,6.291 7,8.5C7,10.709 8.791,12.5 11,12.5ZM11,10.5C9.895,10.5 9,9.605 9,8.5C9,7.395 9.895,6.5 11,6.5C12.105,6.5 13,7.395 13,8.5C13,9.605 12.105,10.5 11,10.5Z"/>
    </g>
    <g transform="matrix(1,0,0,1,1,3.5)">
        <path d="M19,0.5L3,0.5C2.204,0.5 1.441,0.816 0.879,1.379C0.316,1.941 0,2.704 0,3.5L0,13.5C0,14.296 0.316,15.059 0.879,15.621C1.441,16.184 2.204,16.5 3,16.5L19,16.5C19.796,16.5 20.559,16.184 21.121,15.621C21.684,15.059 22,14.296 22,13.5L22,3.5C22,2.704 21.684,1.941 21.121,1.379C20.559,0.816 19.796,0.5 19,0.5ZM5.899,2.5C5.704,3.453 5.234,4.337 4.536,5.036C4.536,5.036 4.536,5.036 4.536,5.036C3.837,5.734 2.953,6.204 2,6.399L2,13.5C2,13.765 2.105,14.02 2.293,14.207C2.293,14.207 2.293,14.207 2.293,14.207C2.48,14.395 2.735,14.5 3,14.5L16.101,14.5C16.296,13.547 16.766,12.663 17.464,11.964C18.163,11.266 19.047,10.796 20,10.601L20,3.5C20,3.235 19.895,2.98 19.707,2.793C19.707,2.793 19.707,2.793 19.707,2.793C19.52,2.605 19.265,2.5 19,2.5L5.899,2.5ZM20,12.672C19.582,12.819 19.198,13.059 18.879,13.379C18.879,13.379 18.879,13.379 18.879,13.379C18.559,13.698 18.319,14.082 18.172,14.5L19,14.5C19.265,14.5 19.52,14.395 19.707,14.207C19.895,14.02 20,13.765 20,13.5L20,12.672Z"/>
    </g>
</svg>
