<?xml version="1.0" encoding="UTF-8" standalone="no"?>
<!DOCTYPE svg PUBLIC "-//W3C//DTD SVG 1.1//EN" "http://www.w3.org/Graphics/SVG/1.1/DTD/svg11.dtd">
<svg width="100%" height="100%" viewBox="0 0 24 24" version="1.1" xmlns="http://www.w3.org/2000/svg" xmlns:xlink="http://www.w3.org/1999/xlink" xml:space="preserve" xmlns:serif="http://www.serif.com/" style="fill-rule:evenodd;clip-rule:evenodd;stroke-linejoin:round;stroke-miterlimit:2;">
    <g transform="matrix(1,0,0,1,1.6,2)">
        <path d="M17.548,1.471C17.37,1.176 17.119,0.931 16.818,0.761C16.518,0.591 16.179,0.501 15.834,0.5L4.966,0.5C4.268,0.5 3.611,0.872 3.252,1.471L0.543,5.985C0.449,6.14 0.4,6.319 0.4,6.5C0.404,7.465 0.759,8.396 1.4,9.118L1.4,17.5C1.4,18.603 2.297,19.5 3.4,19.5L17.4,19.5C18.503,19.5 19.4,18.603 19.4,17.5L19.4,9.118C20.041,8.396 20.396,7.465 20.4,6.5C20.4,6.319 20.351,6.14 20.257,5.985L17.548,1.471ZM18.384,6.751C18.322,7.234 18.087,7.678 17.722,8C17.357,8.321 16.887,8.499 16.4,8.5C15.297,8.5 14.4,7.603 14.4,6.5C14.4,6.432 14.375,6.372 14.361,6.308L14.381,6.304L13.62,2.5L15.834,2.5L18.384,6.751ZM9.219,2.5L11.58,2.5L12.393,6.565C12.358,7.637 11.48,8.5 10.4,8.5C9.32,8.5 8.442,7.637 8.407,6.565L9.219,2.5ZM4.966,2.5L7.18,2.5L6.42,6.304L6.44,6.308C6.425,6.372 6.4,6.432 6.4,6.5C6.4,7.603 5.503,8.5 4.4,8.5C3.913,8.499 3.443,8.321 3.078,8C2.713,7.678 2.478,7.234 2.416,6.751L4.966,2.5ZM8.4,17.5L8.4,14.5L12.4,14.5L12.4,17.5L8.4,17.5ZM14.4,17.5L14.4,14.5C14.4,13.397 13.503,12.5 12.4,12.5L8.4,12.5C7.297,12.5 6.4,13.397 6.4,14.5L6.4,17.5L3.4,17.5L3.4,10.358C3.721,10.441 4.052,10.5 4.4,10.5C4.968,10.5 5.529,10.379 6.047,10.145C6.564,9.911 7.025,9.57 7.4,9.143C8.133,9.975 9.207,10.5 10.4,10.5C11.593,10.5 12.667,9.975 13.4,9.143C13.775,9.57 14.236,9.911 14.754,10.145C15.271,10.379 15.832,10.5 16.4,10.5C16.748,10.5 17.079,10.441 17.4,10.358L17.4,17.5L14.4,17.5Z" style="fill-rule:nonzero;"/>
    </g>
</svg>
