<svg id="레이어_1" data-name="레이어 1" xmlns="http://www.w3.org/2000/svg" viewBox="0 0 81.63 84.13">
  <title>내 딜 정보 아이콘</title>
  <path d="M9.52,5.79H53.3A2.58,2.58,0,0,1,56,8.49V80.87A2.67,2.67,0,0,1,53.3,83.6H9.52a2.72,2.72,0,0,1-2.86-2.73V8.49A2.7,2.7,0,0,1,9.52,5.79Z" transform="translate(-5.16 -4.29)" fill="#fff" stroke="#000" stroke-miterlimit="10" stroke-width="3"/>
  <rect x="8.72" y="7.76" width="35.19" height="53.6" fill="#fff" stroke="#000" stroke-miterlimit="10" stroke-width="3"/>
  <polygon points="78.43 71.4 57.55 82.44 35.28 70.72 56.39 59.69 78.43 71.4" fill="#38af00" stroke="#000" stroke-miterlimit="10" stroke-width="3"/>
  <polygon points="78.43 62.63 57.55 73.67 35.28 61.96 56.39 50.93 78.43 62.63" fill="#fff" stroke="#000" stroke-miterlimit="10" stroke-width="3"/>
  <polygon points="78.43 48.66 57.55 59.69 35.28 47.98 56.39 36.95 78.43 48.66" fill="#38af00" stroke="#000" stroke-miterlimit="10" stroke-width="3"/>
  <circle cx="26.72" cy="70.93" r="2.29"/>
</svg>
