<?xml version="1.0" encoding="UTF-8" standalone="no"?>
<!DOCTYPE svg PUBLIC "-//W3C//DTD SVG 1.1//EN" "http://www.w3.org/Graphics/SVG/1.1/DTD/svg11.dtd">
<svg width="100%" height="100%" viewBox="0 0 512 512" version="1.1" xmlns="http://www.w3.org/2000/svg" xmlns:xlink="http://www.w3.org/1999/xlink" xml:space="preserve" xmlns:serif="http://www.serif.com/" style="fill-rule:evenodd;clip-rule:evenodd;stroke-linejoin:round;stroke-miterlimit:2;">
    <path d="M512,256C512,114.71 397.29,0 256,0C114.71,0 0,114.71 0,256C0,397.29 114.71,512 256,512C397.29,512 512,397.29 512,256Z" style="fill:rgb(255,140,185);"/>
    <g transform="matrix(0.807153,0,0,1,40.8673,47.6167)">
        <path d="M266.532,194.919C309.002,74.711 393.943,74.711 436.414,104.971C478.886,135.231 478.886,195.751 436.414,256.272C406.684,301.662 330.238,347.052 266.532,377.312C202.826,347.052 126.38,301.662 96.65,256.272C54.18,195.751 54.18,135.231 96.65,104.971C139.121,74.711 224.062,74.711 266.532,194.919Z" style="fill:rgb(255,50,143);"/>
        <clipPath id="_clip1">
            <path d="M266.532,194.919C309.002,74.711 393.943,74.711 436.414,104.971C478.886,135.231 478.886,195.751 436.414,256.272C406.684,301.662 330.238,347.052 266.532,377.312C202.826,347.052 126.38,301.662 96.65,256.272C54.18,195.751 54.18,135.231 96.65,104.971C139.121,74.711 224.062,74.711 266.532,194.919Z"/>
        </clipPath>
        <g clip-path="url(#_clip1)">
            <g transform="matrix(1.23892,0,0,1,-54.3483,-47.6167)">
                <rect x="257.821" y="97.001" width="184.702" height="398.376" style="fill:rgb(255,15,80);"/>
            </g>
        </g>
    </g>
</svg>
