<?xml version="1.0" encoding="UTF-8" standalone="no"?>
<!DOCTYPE svg PUBLIC "-//W3C//DTD SVG 1.1//EN" "http://www.w3.org/Graphics/SVG/1.1/DTD/svg11.dtd">
<svg width="100%" height="100%" viewBox="0 0 512 512" version="1.1" xmlns="http://www.w3.org/2000/svg" xmlns:xlink="http://www.w3.org/1999/xlink" xml:space="preserve" xmlns:serif="http://www.serif.com/" style="fill-rule:evenodd;clip-rule:evenodd;stroke-linejoin:round;stroke-miterlimit:2;">
    <path d="M512,256C512,114.71 397.29,0 256,0C114.71,0 0,114.71 0,256C0,397.29 114.71,512 256,512C397.29,512 512,397.29 512,256Z" style="fill:rgb(255,129,121);"/>
    <g transform="matrix(1,0,0,1,-26.0001,29.5)">
        <g transform="matrix(0.907407,0,0,1.03472,11.7778,-41.5139)">
            <path d="M138,274L192,276C183.322,324.094 181.057,371.626 192,418L129.184,418C119.052,374.936 130.468,325.67 138,274Z" style="fill:rgb(51,51,51);"/>
            <clipPath id="_clip1">
                <path d="M138,274L192,276C183.322,324.094 181.057,371.626 192,418L129.184,418C119.052,374.936 130.468,325.67 138,274Z"/>
            </clipPath>
            <g clip-path="url(#_clip1)">
                <g transform="matrix(1,0,0,1,28.5941,0)">
                    <path d="M138,274L192,276C183.322,324.094 181.057,371.626 192,418L129.184,418C119.052,374.936 130.468,325.67 138,274Z" style="fill:rgb(37,37,37);"/>
                </g>
            </g>
        </g>
        <g transform="matrix(0.203704,0,0,0.25,158.954,191.101)">
            <path d="M138,274L192,276L192,418L138,418L138,274Z" style="fill:rgb(255,199,0);"/>
        </g>
        <g transform="matrix(1,0,0,1.72727,-15,-154.182)">
            <circle cx="443" cy="212" r="33" style="fill:white;"/>
            <clipPath id="_clip2">
                <circle cx="443" cy="212" r="33"/>
            </clipPath>
            <g clip-path="url(#_clip2)">
                <g transform="matrix(1,0,0,0.578947,15,89.2632)">
                    <rect x="60" y="209" width="452" height="212" style="fill-opacity:0.1;"/>
                </g>
            </g>
        </g>
        <g transform="matrix(1,0,0,1,-8,0)">
            <path d="M145,194C145,184.617 137.383,177 128,177C118.617,177 111,184.617 111,194L111,225C111,234.383 118.617,242 128,242C137.383,242 145,234.383 145,225L145,194Z" style="fill:white;"/>
            <clipPath id="_clip3">
                <path d="M145,194C145,184.617 137.383,177 128,177C118.617,177 111,184.617 111,194L111,225C111,234.383 118.617,242 128,242C137.383,242 145,234.383 145,225L145,194Z"/>
            </clipPath>
            <g clip-path="url(#_clip3)">
                <g transform="matrix(1,0,0,1,8,0)">
                    <rect x="60" y="209" width="452" height="212" style="fill-opacity:0.1;"/>
                </g>
            </g>
        </g>
        <g transform="matrix(0.959375,0,0,1,-34.3375,13)">
            <path d="M163.886,160.545C163.952,155.866 168.482,152.523 170.723,152.27C275.149,140.495 379.574,108.474 484,54L484,339C385.236,289.261 280.636,257.439 170.723,241.928C168.484,241.612 164.241,238.277 164,235.089C163.111,223.327 163.633,178.535 163.886,160.545Z" style="fill:white;"/>
            <clipPath id="_clip4">
                <path d="M163.886,160.545C163.952,155.866 168.482,152.523 170.723,152.27C275.149,140.495 379.574,108.474 484,54L484,339C385.236,289.261 280.636,257.439 170.723,241.928C168.484,241.612 164.241,238.277 164,235.089C163.111,223.327 163.633,178.535 163.886,160.545Z"/>
            </clipPath>
            <g clip-path="url(#_clip4)">
                <g transform="matrix(1.04235,0,0,1.44,44.1303,-130.44)">
                    <rect x="95" y="126" width="152" height="200" style="fill:rgb(255,23,23);"/>
                </g>
                <g transform="matrix(1.04235,0,0,1,35.7915,-13)">
                    <rect x="60" y="209" width="452" height="212" style="fill-opacity:0.1;"/>
                </g>
            </g>
        </g>
        <g transform="matrix(2.12502,0,0,1,-501.759,0)">
            <path d="M446,70.5C446,65.809 444.208,62 442,62L434,62C431.792,62 430,65.809 430,70.5L430,350.5C430,355.191 431.792,359 434,359L442,359C444.208,359 446,355.191 446,350.5L446,70.5Z" style="fill:rgb(255,23,23);"/>
            <clipPath id="_clip5">
                <path d="M446,70.5C446,65.809 444.208,62 442,62L434,62C431.792,62 430,65.809 430,70.5L430,350.5C430,355.191 431.792,359 434,359L442,359C444.208,359 446,355.191 446,350.5L446,70.5Z"/>
            </clipPath>
            <g clip-path="url(#_clip5)">
                <g transform="matrix(0.470584,0,0,1,236.12,0)">
                    <rect x="60" y="209" width="452" height="212" style="fill-opacity:0.1;"/>
                </g>
            </g>
        </g>
    </g>
</svg>
