<?xml version="1.0" encoding="UTF-8" standalone="no"?>
<!DOCTYPE svg PUBLIC "-//W3C//DTD SVG 1.1//EN" "http://www.w3.org/Graphics/SVG/1.1/DTD/svg11.dtd">
<svg width="100%" height="100%" viewBox="0 0 512 512" version="1.1" xmlns="http://www.w3.org/2000/svg" xmlns:xlink="http://www.w3.org/1999/xlink" xml:space="preserve" xmlns:serif="http://www.serif.com/" style="fill-rule:evenodd;clip-rule:evenodd;stroke-linejoin:round;stroke-miterlimit:2;">
    <path d="M512,256C512,114.71 397.29,0 256,0C114.71,0 0,114.71 0,256C0,397.29 114.71,512 256,512C397.29,512 512,397.29 512,256Z" style="fill:rgb(255,178,86);"/>
    <g transform="matrix(1,0,0,1,-3,29.3344)">
        <path d="M259,53L319.644,161.531L441.603,185.669L357.123,276.882L371.855,400.331L259,348.173L146.145,400.331L160.877,276.882L76.397,185.669L198.356,161.531L259,53Z" style="fill:rgb(255,218,0);"/>
        <clipPath id="_clip1">
            <path d="M259,53L319.644,161.531L441.603,185.669L357.123,276.882L371.855,400.331L259,348.173L146.145,400.331L160.877,276.882L76.397,185.669L198.356,161.531L259,53Z"/>
        </clipPath>
        <g clip-path="url(#_clip1)">
            <g transform="matrix(1,0,0,1,3,-29.3344)">
                <path d="M256,82.334L256,268L438.603,215L256,82.334Z" style="fill:rgb(255,201,0);"/>
            </g>
            <g transform="matrix(-0.793674,0.608343,-0.608343,-0.793674,625.217,295.634)">
                <path d="M201.783,177.726L256,268L264.774,71.033L201.783,177.726Z" style="fill:rgb(255,184,0);"/>
            </g>
            <g transform="matrix(0.793674,0.608343,0.608343,-0.793674,-107.217,295.634)">
                <path d="M201.783,177.726L256,268L264.783,71.04L201.783,177.726Z" style="fill:rgb(255,241,0);"/>
            </g>
            <g transform="matrix(-0.793674,0.608343,-0.608343,-0.793674,625.217,295.634)">
                <path d="M264.683,70.963L256,268L443.904,208.334L264.683,70.963Z" style="fill:rgb(255,159,0);"/>
            </g>
            <g transform="matrix(-1,0,0,1,515,-29.3344)">
                <path d="M256,82.334L256,268L438.603,215L256,82.334Z" style="fill:rgb(255,242,46);"/>
            </g>
        </g>
        <path d="M270.529,46.558C268.195,42.381 263.785,39.794 259,39.794C254.215,39.794 249.805,42.381 247.471,46.558L189.805,149.761C189.805,149.761 73.833,172.714 73.833,172.714C69.14,173.643 65.316,177.037 63.837,181.588C62.359,186.138 63.457,191.132 66.708,194.643L147.04,281.378C147.04,281.378 133.032,398.766 133.032,398.766C132.465,403.517 134.512,408.203 138.383,411.015C142.254,413.828 147.343,414.326 151.686,412.319L259,362.722C259,362.722 366.314,412.319 366.314,412.319C370.657,414.326 375.746,413.828 379.617,411.015C383.488,408.203 385.535,403.517 384.968,398.766L370.96,281.378C370.96,281.378 451.292,194.643 451.292,194.643C454.543,191.132 455.641,186.138 454.163,181.588C452.684,177.037 448.86,173.643 444.167,172.714L328.195,149.761C328.195,149.761 270.529,46.558 270.529,46.558ZM259,53L319.644,161.531L441.603,185.669L357.123,276.882L371.855,400.331L259,348.173L146.145,400.331L160.877,276.882L76.397,185.669L198.356,161.531L259,53Z" style="fill:rgb(255,173,0);"/>
    </g>
</svg>
