<?xml version="1.0" encoding="UTF-8" standalone="no"?>
<!DOCTYPE svg PUBLIC "-//W3C//DTD SVG 1.1//EN" "http://www.w3.org/Graphics/SVG/1.1/DTD/svg11.dtd">
<svg width="100%" height="100%" viewBox="0 0 512 512" version="1.1" xmlns="http://www.w3.org/2000/svg" xmlns:xlink="http://www.w3.org/1999/xlink" xml:space="preserve" xmlns:serif="http://www.serif.com/" style="fill-rule:evenodd;clip-rule:evenodd;stroke-linejoin:round;stroke-miterlimit:2;">
    <path d="M512,256C512,114.71 397.29,0 256,0C114.71,0 0,114.71 0,256C0,397.29 114.71,512 256,512C397.29,512 512,397.29 512,256Z" style="fill:rgb(255,222,81);"/>
    <g transform="matrix(1.02221,0,0,0.795922,-13.175,58.1415)">
        <path d="M403.481,129.712C403.481,125.021 400.516,121.213 396.863,121.213L136.466,121.213C132.814,121.213 129.849,125.021 129.849,129.712L129.849,192.035L403.481,192.035L403.481,129.712Z" style="fill:white;"/>
        <clipPath id="_clip1">
            <path d="M403.481,129.712C403.481,125.021 400.516,121.213 396.863,121.213L136.466,121.213C132.814,121.213 129.849,125.021 129.849,129.712L129.849,192.035L403.481,192.035L403.481,129.712Z"/>
        </clipPath>
        <g clip-path="url(#_clip1)">
            <g transform="matrix(0.778628,0,0,1,56.3611,-8.86725)">
                <rect x="231.081" y="121.471" width="71.204" height="83.071" style="fill:rgb(255,181,0);"/>
            </g>
            <g transform="matrix(0.778628,0,0,1,64.6789,-8.86725)">
                <rect x="257.557" y="121.688" width="183.125" height="327.431" style="fill-opacity:0.15;"/>
            </g>
        </g>
    </g>
    <g transform="matrix(0.953173,0,0,2.63343,5.23479,-108.459)">
        <path d="M403.481,121.213L129.849,121.213L129.849,183.537C129.849,188.227 140.37,192.035 153.329,192.035L380,192.035C392.96,192.035 403.481,188.227 403.481,183.537L403.481,121.213Z" style="fill:white;"/>
        <clipPath id="_clip2">
            <path d="M403.481,121.213L129.849,121.213L129.849,183.537C129.849,188.227 140.37,192.035 153.329,192.035L380,192.035C392.96,192.035 403.481,188.227 403.481,183.537L403.481,121.213Z"/>
        </clipPath>
        <g clip-path="url(#_clip2)">
            <g transform="matrix(0.711316,0,0,0.882726,74.1195,12.7872)">
                <rect x="231.081" y="121.471" width="71.204" height="83.071" style="fill:rgb(255,181,0);"/>
            </g>
            <g transform="matrix(0.835023,0,0,0.124451,50.0493,94.3696)">
                <rect x="72.851" y="190.037" width="381.071" height="44.832" style="fill-opacity:0.15;"/>
            </g>
            <g transform="matrix(0.835023,0,0,0.302238,50.0493,60.5835)">
                <rect x="257.557" y="121.688" width="183.125" height="327.431" style="fill-opacity:0.15;"/>
            </g>
        </g>
    </g>
    <g transform="matrix(0.142622,0.390003,-1.08248,0.395856,343.626,-18.4541)">
        <path d="M324.919,17.579C351.7,17.579 373.443,22.322 373.443,49.103C373.443,66.704 352.483,89.472 338.114,103.013C330.62,110.075 319.218,110.075 311.724,103.013C297.355,89.472 276.395,66.704 276.395,49.103C276.395,22.322 298.138,17.579 324.919,17.579Z" style="fill:rgb(217,154,0);"/>
    </g>
    <g transform="matrix(-0.142709,0.389972,1.08239,0.396098,168.129,-18.4699)">
        <path d="M324.919,17.579C351.7,17.579 373.443,22.322 373.443,49.103C373.443,66.704 352.483,89.472 338.114,103.013C330.62,110.075 319.218,110.075 311.724,103.013C297.355,89.472 276.395,66.704 276.395,49.103C276.395,22.322 298.138,17.579 324.919,17.579Z" style="fill:rgb(255,181,0);"/>
    </g>
    <g transform="matrix(0.795922,0,0,0.795922,52.9404,44.3225)">
        <path d="M284.834,119.901C284.834,109.421 276.326,100.913 265.847,100.913L244.749,100.913C234.27,100.913 225.762,109.421 225.762,119.901C225.762,130.381 234.27,138.889 244.749,138.889L265.847,138.889C276.326,138.889 284.834,130.381 284.834,119.901Z" style="fill:rgb(255,181,0);"/>
        <clipPath id="_clip3">
            <path d="M284.834,119.901C284.834,109.421 276.326,100.913 265.847,100.913L244.749,100.913C234.27,100.913 225.762,109.421 225.762,119.901C225.762,130.381 234.27,138.889 244.749,138.889L265.847,138.889C276.326,138.889 284.834,130.381 284.834,119.901Z"/>
        </clipPath>
        <g clip-path="url(#_clip3)">
            <g transform="matrix(1,0,0,1.1933,0,-78.3193)">
                <rect x="257.557" y="121.688" width="183.125" height="327.431" style="fill-opacity:0.15;"/>
            </g>
        </g>
    </g>
</svg>
