<?xml version="1.0" encoding="UTF-8" standalone="no"?>
<!DOCTYPE svg PUBLIC "-//W3C//DTD SVG 1.1//EN" "http://www.w3.org/Graphics/SVG/1.1/DTD/svg11.dtd">
<svg width="100%" height="100%" viewBox="0 0 512 512" version="1.1" xmlns="http://www.w3.org/2000/svg" xmlns:xlink="http://www.w3.org/1999/xlink" xml:space="preserve" xmlns:serif="http://www.serif.com/" style="fill-rule:evenodd;clip-rule:evenodd;stroke-linejoin:round;stroke-miterlimit:2;">
    <path d="M512,256C512,114.71 397.29,0 256,0C114.71,0 0,114.71 0,256C0,397.29 114.71,512 256,512C397.29,512 512,397.29 512,256Z" style="fill:rgb(205,255,61);"/>
    <g transform="matrix(1.09589,0.842181,-0.842181,1.09589,84.8658,-202.277)">
        <path d="M343.19,86.226C343.19,62.465 323.927,43.202 300.165,43.202C276.403,43.202 257.14,62.465 257.14,86.226L300.165,86.226L343.19,86.226Z" style="fill:rgb(214,29,82);"/>
    </g>
    <g transform="matrix(-1.09552,0.84189,0.84189,1.09552,427.025,-202.158)">
        <path d="M343.19,86.226C343.19,62.465 323.927,43.202 300.165,43.202C276.403,43.202 257.14,62.465 257.14,86.226L300.165,86.226L343.19,86.226Z" style="fill:rgb(255,55,113);"/>
    </g>
    <g transform="matrix(0.529709,0.305828,-0.414681,0.718249,193.258,67.9429)">
        <path d="M267.57,310.216L213.333,310.216L213.333,373.658C213.333,384.696 225.485,393.658 240.452,393.658C255.419,393.658 267.57,384.696 267.57,373.658L267.57,310.216Z" style="fill:rgb(255,55,113);"/>
    </g>
    <g transform="matrix(-0.530187,0.306103,0.414681,0.718249,323.957,64.9321)">
        <path d="M267.57,310.216L213.333,310.216L213.333,373.64C213.333,384.688 225.485,393.658 240.452,393.658C255.419,393.658 267.57,384.688 267.57,373.64L267.57,310.216Z" style="fill:rgb(214,29,82);"/>
    </g>
    <g transform="matrix(0.829362,0,0,0.829362,43.6833,36.199)">
        <path d="M268.946,79.525L260.829,118.862C260.464,120.632 261.604,122.366 263.374,122.731C265.145,123.097 266.878,121.956 267.243,120.186L275.361,80.848C275.726,79.078 274.585,77.345 272.815,76.979C271.045,76.614 269.311,77.755 268.946,79.525Z" style="fill:rgb(214,29,82);"/>
    </g>
    <g transform="matrix(0.801102,0.214655,-0.214655,0.801102,83.7728,-16.3777)">
        <path d="M277.096,71.363C277.096,68.845 275.051,66.8 272.533,66.8L237.331,66.8C234.812,66.8 232.768,68.845 232.768,71.363L232.768,80.49C232.768,83.008 234.812,85.053 237.331,85.053L272.533,85.053C275.051,85.053 277.096,83.008 277.096,80.49L277.096,71.363Z" style="fill:rgb(255,55,113);"/>
    </g>
    <g transform="matrix(0.639271,0,0,0.639271,90.8531,100.879)">
        <circle cx="258.336" cy="252.996" r="208.271" style="fill:rgb(255,55,113);"/>
    </g>
    <g transform="matrix(0.584108,0,0,0.584108,105.104,114.835)">
        <circle cx="258.336" cy="252.996" r="208.271" style="fill:rgb(255,254,230);"/>
    </g>
    <path d="M255.741,140.96L256,140.959C323.142,140.959 377.653,195.47 377.653,262.612C377.653,329.754 323.142,384.264 256,384.264L255.741,384.264L255.741,140.96Z" style="fill:rgb(250,247,183);"/>
    <g transform="matrix(1,0,0,1,-4.00498,-5.3089)">
        <rect x="257.289" y="134.779" width="5.432" height="25.947" style="fill:rgb(255,55,113);"/>
    </g>
    <g transform="matrix(1,0,0,3.19833,-4.00498,-249.447)">
        <rect x="257.289" y="134.779" width="5.432" height="25.947" style="fill:rgb(255,55,113);"/>
    </g>
    <g transform="matrix(1,0,0,1,-4.00498,235.027)">
        <rect x="257.289" y="134.779" width="5.432" height="25.947" style="fill:rgb(255,55,113);"/>
    </g>
    <g transform="matrix(6.12323e-17,1,-1,6.12323e-17,523.921,2.60663)">
        <rect x="257.289" y="134.779" width="5.432" height="25.947" style="fill:rgb(255,55,113);"/>
    </g>
    <g transform="matrix(6.12323e-17,1,-1,6.12323e-17,283.584,2.60663)">
        <rect x="257.289" y="134.779" width="5.432" height="25.947" style="fill:rgb(255,55,113);"/>
    </g>
    <g transform="matrix(0.866025,0.5,-0.5,0.866025,164.789,-99.4168)">
        <rect x="257.289" y="134.779" width="5.432" height="25.947" style="fill:rgb(255,55,113);"/>
    </g>
    <g transform="matrix(0.866025,0.5,-0.5,0.866025,44.6212,108.72)">
        <rect x="257.289" y="134.779" width="5.432" height="25.947" style="fill:rgb(255,55,113);"/>
    </g>
    <g transform="matrix(-0.5,0.866025,-0.866025,-0.5,618.028,171.401)">
        <rect x="257.289" y="134.779" width="5.432" height="25.947" style="fill:rgb(255,55,113);"/>
    </g>
    <g transform="matrix(-0.5,0.866025,-0.866025,-0.5,409.891,51.2328)">
        <rect x="257.289" y="134.779" width="5.432" height="25.947" style="fill:rgb(255,55,113);"/>
    </g>
    <g transform="matrix(0.5,0.866025,-0.866025,0.5,358.023,-96.5196)">
        <rect x="257.289" y="134.779" width="5.432" height="25.947" style="fill:rgb(255,55,113);"/>
    </g>
    <g transform="matrix(0.5,0.866025,-0.866025,0.5,149.886,23.6486)">
        <rect x="257.289" y="134.779" width="5.432" height="25.947" style="fill:rgb(255,55,113);"/>
    </g>
    <g transform="matrix(-0.866025,0.5,-0.5,-0.866025,615.131,364.635)">
        <rect x="257.289" y="134.779" width="5.432" height="25.947" style="fill:rgb(255,55,113);"/>
    </g>
    <g transform="matrix(-0.866025,0.5,-0.5,-0.866025,494.963,156.498)">
        <rect x="257.289" y="134.779" width="5.432" height="25.947" style="fill:rgb(255,55,113);"/>
    </g>
    <g transform="matrix(0.0523318,0,0,0.0523318,242.481,249.372)">
        <circle cx="258.336" cy="252.996" r="208.271" style="fill:rgb(255,55,113);"/>
    </g>
</svg>
