<?xml version="1.0" encoding="UTF-8" standalone="no"?>
<!DOCTYPE svg PUBLIC "-//W3C//DTD SVG 1.1//EN" "http://www.w3.org/Graphics/SVG/1.1/DTD/svg11.dtd">
<svg width="100%" height="100%" viewBox="0 0 512 512" version="1.1" xmlns="http://www.w3.org/2000/svg" xmlns:xlink="http://www.w3.org/1999/xlink" xml:space="preserve" xmlns:serif="http://www.serif.com/" style="fill-rule:evenodd;clip-rule:evenodd;stroke-linejoin:round;stroke-miterlimit:2;">
    <path d="M512,256C512,114.71 397.29,0 256,0C114.71,0 0,114.71 0,256C0,397.29 114.71,512 256,512C397.29,512 512,397.29 512,256Z" style="fill:rgb(81,255,209);"/>
    <path d="M407.943,408.794C407.943,406.7 406.243,405 404.149,405L111.312,405C109.218,405 107.518,406.7 107.518,408.794L107.518,416.383C107.518,418.477 109.218,420.177 111.312,420.177L404.149,420.177C406.243,420.177 407.943,418.477 407.943,416.383L407.943,408.794Z" style="fill:rgb(159,112,48);"/>
    <g transform="matrix(1,0,0,1,-4.5,20)">
        <rect x="124" y="199" width="273" height="186" style="fill:rgb(255,216,163);"/>
    </g>
    <g transform="matrix(1,0,0,0.189237,-4.5,171.342)">
        <rect x="124" y="199" width="273" height="186" style="fill:rgb(255,194,112);"/>
    </g>
    <path d="M307.802,315.535C307.802,288.211 285.618,266.027 258.293,266.027C230.969,266.027 208.785,288.211 208.785,315.535L208.785,405L307.802,405L307.802,315.535Z" style="fill:rgb(255,188,98);"/>
    <g transform="matrix(0.84588,0,0,0.84588,-0.546829,33.4369)">
        <circle cx="138" cy="219" r="28" style="fill:rgb(217,55,59);"/>
    </g>
    <g transform="matrix(0.84588,0,0,0.84588,91.9967,33.4369)">
        <circle cx="138" cy="219" r="28" style="fill:rgb(217,55,59);"/>
    </g>
    <g transform="matrix(0.84588,0,0,0.84588,184.54,33.4369)">
        <circle cx="138" cy="219" r="28" style="fill:rgb(217,55,59);"/>
    </g>
    <g transform="matrix(0.84588,0,0,0.84588,278.084,33.4369)">
        <circle cx="138" cy="219" r="28" style="fill:rgb(217,55,59);"/>
    </g>
    <g transform="matrix(0.84588,0,0,0.84588,45.725,33.4369)">
        <circle cx="138" cy="219" r="28" style="fill:rgb(206,206,206);"/>
    </g>
    <g transform="matrix(0.84588,0,0,0.84588,138.269,33.4369)">
        <circle cx="138" cy="219" r="28" style="fill:rgb(206,206,206);"/>
    </g>
    <g transform="matrix(0.84588,0,0,0.84588,230.812,33.4369)">
        <circle cx="138" cy="219" r="28" style="fill:rgb(206,206,206);"/>
    </g>
    <g transform="matrix(1,0,0,1.5679,-5.5,-124.37)">
        <path d="M395,138L128,138L98,219L425,219L395,138Z" style="fill:rgb(252,252,252);"/>
        <clipPath id="_clip1">
            <path d="M395,138L128,138L98,219L425,219L395,138Z"/>
        </clipPath>
        <g clip-path="url(#_clip1)">
            <g transform="matrix(1,0,0,0.637795,5.5,79.3228)">
                <path d="M138.772,119.45C138.772,119.45 227.977,146.455 371.228,119.45C371.228,119.45 331.365,171.343 252.456,171.343C173.547,171.343 138.772,119.45 138.772,119.45" style="fill:white;"/>
            </g>
        </g>
    </g>
    <path d="M278.685,219L271,92L305,92L323.859,219L278.685,219ZM186.141,219L196,92L231.315,92L231.315,219L186.141,219ZM355,92L371.228,219L419.5,219L389.5,92L355,92ZM138.772,219L165,92L119.5,92L92.5,219L138.772,219Z" style="fill:rgb(255,0,74);"/>
    <clipPath id="_clip2">
        <path d="M278.685,219L271,92L305,92L323.859,219L278.685,219ZM186.141,219L196,92L231.315,92L231.315,219L186.141,219ZM355,92L371.228,219L419.5,219L389.5,92L355,92ZM138.772,219L165,92L119.5,92L92.5,219L138.772,219Z"/>
    </clipPath>
    <g clip-path="url(#_clip2)">
        <path d="M138.772,119.45C138.772,119.45 227.977,146.455 371.228,119.45C371.228,119.45 331.365,171.343 252.456,171.343C173.547,171.343 138.772,119.45 138.772,119.45" style="fill:rgb(255,71,94);"/>
    </g>
</svg>
