<?xml version="1.0" encoding="UTF-8" standalone="no"?>
<!DOCTYPE svg PUBLIC "-//W3C//DTD SVG 1.1//EN" "http://www.w3.org/Graphics/SVG/1.1/DTD/svg11.dtd">
<svg width="100%" height="100%" viewBox="0 0 512 512" version="1.1" xmlns="http://www.w3.org/2000/svg" xmlns:xlink="http://www.w3.org/1999/xlink" xml:space="preserve" xmlns:serif="http://www.serif.com/" style="fill-rule:evenodd;clip-rule:evenodd;stroke-linecap:round;stroke-linejoin:round;stroke-miterlimit:1.5;">
    <path d="M512,256C512,114.71 397.29,0 256,0C114.71,0 0,114.71 0,256C0,397.29 114.71,512 256,512C397.29,512 512,397.29 512,256Z" style="fill:rgb(81,199,255);"/>
    <g transform="matrix(0.900794,0,0,1,28.329,-5.44093)">
        <path d="M377.351,86.636C377.351,71.769 363.951,59.698 347.446,59.698L158.044,59.698C141.539,59.698 128.139,71.769 128.139,86.636L128.139,436.245C128.139,451.113 141.539,463.184 158.044,463.184L347.446,463.184C363.951,463.184 377.351,451.113 377.351,436.245L377.351,86.636Z" style="fill:white;"/>
        <clipPath id="_clip1">
            <path d="M377.351,86.636C377.351,71.769 363.951,59.698 347.446,59.698L158.044,59.698C141.539,59.698 128.139,71.769 128.139,86.636L128.139,436.245C128.139,451.113 141.539,463.184 158.044,463.184L347.446,463.184C363.951,463.184 377.351,451.113 377.351,436.245L377.351,86.636Z"/>
        </clipPath>
        <g clip-path="url(#_clip1)">
            <g transform="matrix(1.11013,0,0,1,-31.4489,5.44093)">
                <path d="M303.339,26.537L217.48,495.952L390.097,495.952L390.097,26.537L303.339,26.537Z" style="fill-opacity:0.15;"/>
            </g>
        </g>
        <path d="M382.091,86.636C382.091,69.412 366.567,55.428 347.446,55.428C347.446,55.428 158.044,55.428 158.044,55.428C138.923,55.428 123.399,69.412 123.399,86.636C123.399,86.636 123.399,436.245 123.399,436.245C123.399,453.47 138.923,467.454 158.044,467.454C158.044,467.454 347.446,467.454 347.446,467.454C366.567,467.454 382.091,453.47 382.091,436.245C382.091,436.245 382.091,86.636 382.091,86.636ZM377.351,86.636C377.351,71.769 363.951,59.698 347.446,59.698L158.044,59.698C141.539,59.698 128.139,71.769 128.139,86.636L128.139,436.245C128.139,451.113 141.539,463.184 158.044,463.184L347.446,463.184C363.951,463.184 377.351,451.113 377.351,436.245L377.351,86.636Z" style="fill:rgb(138,217,255);"/>
    </g>
    <g transform="matrix(0.77756,0,0,0.778964,59.4756,32.4797)">
        <path d="M377.351,89.549C377.351,73.074 363.951,59.698 347.446,59.698L158.044,59.698C141.539,59.698 128.139,73.074 128.139,89.549L128.139,433.333C128.139,449.808 141.539,463.184 158.044,463.184L347.446,463.184C363.951,463.184 377.351,449.808 377.351,433.333L377.351,89.549Z" style="fill:rgb(157,224,255);"/>
        <clipPath id="_clip2">
            <path d="M377.351,89.549C377.351,73.074 363.951,59.698 347.446,59.698L158.044,59.698C141.539,59.698 128.139,73.074 128.139,89.549L128.139,433.333C128.139,449.808 141.539,463.184 158.044,463.184L347.446,463.184C363.951,463.184 377.351,449.808 377.351,433.333L377.351,89.549Z"/>
        </clipPath>
        <g clip-path="url(#_clip2)">
            <g transform="matrix(1.23446,0,0,1.28376,-63.2779,-41.696)">
                <path d="M303.339,26.537L217.48,495.952L390.097,495.952L390.097,26.537L303.339,26.537Z" style="fill-opacity:0.15;"/>
            </g>
        </g>
        <path d="M381.944,89.549C381.944,70.543 366.486,55.113 347.446,55.113L158.044,55.113C139.004,55.113 123.546,70.543 123.546,89.549L123.546,433.333C123.546,452.339 139.004,467.769 158.044,467.769C158.044,467.769 347.446,467.769 347.446,467.769C366.486,467.769 381.944,452.339 381.944,433.333C381.944,433.333 381.944,89.549 381.944,89.549ZM377.351,89.549C377.351,73.074 363.951,59.698 347.446,59.698L158.044,59.698C141.539,59.698 128.139,73.074 128.139,89.549L128.139,433.333C128.139,449.808 141.539,463.184 158.044,463.184L347.446,463.184C363.951,463.184 377.351,449.808 377.351,433.333L377.351,89.549Z" style="fill:rgb(199,237,255);"/>
    </g>
    <g transform="matrix(1,0,0,1,0,-7)">
        <circle cx="254.723" cy="432.857" r="13.845" style="fill:rgb(195,195,195);"/>
    </g>
    <g transform="matrix(0.514124,0,0,0.514124,125.966,106.647)">
        <path d="M345,210C345,210 318.969,261 250,261C194.031,261 178,244 178,244L161,259C161,259 189.047,322 271,322C352.953,322 345,210 345,210Z" style="fill:white;"/>
        <clipPath id="_clip3">
            <path d="M345,210C345,210 318.969,261 250,261C194.031,261 178,244 178,244L161,259C161,259 189.047,322 271,322C352.953,322 345,210 345,210Z"/>
        </clipPath>
        <g clip-path="url(#_clip3)">
            <g transform="matrix(1.94506,0,0,1.94506,-245.011,-207.434)">
                <path d="M303.339,26.537L217.48,495.952L390.097,495.952L390.097,26.537L303.339,26.537Z" style="fill-opacity:0.15;"/>
            </g>
        </g>
        <path d="M345,210C345,210 318.969,261 250,261C194.031,261 178,244 178,244L161,259C161,259 189.047,322 271,322C352.953,322 345,210 345,210Z" style="fill:none;stroke:rgb(112,209,255);stroke-width:9.66px;"/>
    </g>
    <g transform="matrix(0.514124,0,0,0.514124,125.966,106.647)">
        <path d="M331,160L329,218C329,218 304.272,296 238,302C171.998,307.976 156,281 156,281L144,302C144,302 162.574,365.092 238,373C323.84,382 398.958,297.654 367,218L362,167L331,160Z" style="fill:white;"/>
        <clipPath id="_clip4">
            <path d="M331,160L329,218C329,218 304.272,296 238,302C171.998,307.976 156,281 156,281L144,302C144,302 162.574,365.092 238,373C323.84,382 398.958,297.654 367,218L362,167L331,160Z"/>
        </clipPath>
        <g clip-path="url(#_clip4)">
            <g transform="matrix(1.94506,0,0,1.94506,-245.011,-207.434)">
                <path d="M303.339,26.537L217.48,495.952L390.097,495.952L390.097,26.537L303.339,26.537Z" style="fill-opacity:0.15;"/>
            </g>
        </g>
        <path d="M331,160L329,218C329,218 304.272,296 238,302C171.998,307.976 156,281 156,281L144,302C144,302 162.574,365.092 238,373C323.84,382 398.958,297.654 367,218L362,167L331,160Z" style="fill:none;stroke:rgb(112,209,255);stroke-width:9.66px;"/>
    </g>
</svg>
