<?xml version="1.0" encoding="UTF-8" standalone="no"?>
<!DOCTYPE svg PUBLIC "-//W3C//DTD SVG 1.1//EN" "http://www.w3.org/Graphics/SVG/1.1/DTD/svg11.dtd">
<svg width="100%" height="100%" viewBox="0 0 512 512" version="1.1" xmlns="http://www.w3.org/2000/svg" xmlns:xlink="http://www.w3.org/1999/xlink" xml:space="preserve" xmlns:serif="http://www.serif.com/" style="fill-rule:evenodd;clip-rule:evenodd;stroke-linejoin:round;stroke-miterlimit:2;">
    <path d="M512,256C512,114.71 397.29,0 256,0C114.71,0 0,114.71 0,256C0,397.29 114.71,512 256,512C397.29,512 512,397.29 512,256Z" style="fill:rgb(141,81,255);"/>
    <g transform="matrix(1,0,0,1,0,17.677)">
        <path d="M234.23,323.615L234.23,355.73L98.975,355.73C94.437,355.73 90.753,359.414 90.753,363.952L90.753,371.855C90.753,376.392 94.437,380.076 98.975,380.076L413.025,380.076C417.563,380.076 421.247,376.392 421.247,371.855L421.247,363.952C421.247,359.414 417.563,355.73 413.025,355.73L277.77,355.73L277.77,323.615L387.256,323.615C404.085,323.615 417.747,309.952 417.747,293.124L417.747,127.06C417.747,110.232 404.085,96.57 387.256,96.57L126.769,96.57C109.941,96.57 96.279,110.232 96.279,127.06L96.279,293.124C96.279,309.952 109.941,323.615 126.769,323.615L234.23,323.615Z" style="fill:rgb(164,138,255);"/>
    </g>
    <g transform="matrix(1,0,0,1,0,17.677)">
        <g transform="matrix(1,0,0,1,0,-17.677)">
            <path d="M95.031,381.551L95.031,389.61C95.066,391.755 96.82,393.483 98.975,393.483L413.025,393.483C415.206,393.483 416.977,391.713 416.977,389.532L416.977,381.629C416.977,379.448 415.206,377.677 413.025,377.677L273.5,377.677L273.5,337.022L387.256,337.022C401.728,337.022 413.477,325.273 413.477,310.801L413.477,144.737C413.477,130.266 401.728,118.517 387.256,118.517L126.769,118.517C112.297,118.517 100.548,130.266 100.548,144.737L100.548,310.801C100.548,325.273 112.297,337.022 126.769,337.022L238.5,337.022L238.5,377.677L98.975,377.677C96.82,377.677 95.066,379.406 95.031,381.551Z" style="fill:white;"/>
        </g>
        <g transform="matrix(1.17036,0,0,0.48448,-38.1158,81.7901)">
            <path d="M380.403,108.116C380.403,77.325 370.054,52.326 357.308,52.326L148.182,52.326C135.436,52.326 125.087,77.325 125.087,108.116L125.087,414.766C125.087,445.557 135.436,470.556 148.182,470.556L357.308,470.556C370.054,470.556 380.403,445.557 380.403,414.766L380.403,108.116Z" style="fill:rgb(207,199,255);"/>
        </g>
        <g transform="matrix(1.17036,0,0,0.48448,-38.1158,81.7901)">
            <path d="M377.351,108.116C377.351,81.393 368.37,59.698 357.308,59.698L148.182,59.698C137.12,59.698 128.139,81.393 128.139,108.116L128.139,414.766C128.139,441.489 137.12,463.184 148.182,463.184L357.308,463.184C368.37,463.184 377.351,441.489 377.351,414.766L377.351,108.116Z" style="fill:rgb(174,157,255);"/>
        </g>
        <g transform="matrix(0.999997,0,0,1,4.48214,0.0001864)">
            <path d="M207.635,212.713C207.635,212.713 250.265,171.095 295.577,212.881C298.822,215.874 303.888,215.669 306.881,212.423C309.874,209.178 309.669,204.112 306.423,201.119C249.753,148.857 196.435,201.287 196.435,201.287C193.282,204.378 193.231,209.447 196.322,212.6C199.413,215.753 204.482,215.804 207.635,212.713Z" style="fill:white;"/>
        </g>
        <g transform="matrix(0.999997,0,0,1,5.71582,0.0001864)">
            <path d="M237.683,231.631C237.683,231.631 250.107,219.192 262.987,231.732C266.151,234.812 271.22,234.744 274.3,231.581C277.38,228.417 277.312,223.348 274.149,220.268C249.802,196.564 226.317,220.369 226.317,220.369C223.209,223.506 223.233,228.575 226.369,231.683C229.506,234.791 234.575,234.767 237.683,231.631Z" style="fill:white;"/>
        </g>
        <g transform="matrix(0.999997,0,0,1,1.277,-179.829)">
            <circle cx="254.723" cy="432.857" r="13.845" style="fill:white;"/>
        </g>
        <g transform="matrix(0.999997,0,0,1,6.49984,0.0001864)">
            <path d="M178.988,199.305C178.988,199.305 212.322,161.409 257.402,165.18C276.798,166.803 298.213,176.32 320.195,199.504C323.232,202.708 328.3,202.843 331.504,199.805C334.708,196.768 334.843,191.7 331.805,188.496C306.326,161.623 281.218,151.117 258.736,149.236C206.1,144.832 167.012,188.695 167.012,188.695C164.084,192.001 164.39,197.061 167.695,199.988C171.001,202.916 176.061,202.61 178.988,199.305Z" style="fill:white;"/>
        </g>
        <g transform="matrix(1.44476,0,0,0.676073,-112.174,60.1531)">
            <path d="M297.185,60.181L238.07,383.379L242.721,383.379L242.721,443.513L227.072,443.513L222.795,466.892L363.519,466.892C365.029,466.892 366.254,464.274 366.254,461.048L366.254,449.358C366.254,446.132 365.029,443.513 363.519,443.513L266.946,443.513L266.946,383.379L345.683,383.379C355.7,383.379 363.832,366 363.832,344.594L363.832,98.964C363.832,77.559 355.7,60.181 345.683,60.181L297.185,60.181Z" style="fill-opacity:0.15;"/>
        </g>
    </g>
</svg>
