<?xml version="1.0" encoding="UTF-8" standalone="no"?>
<!DOCTYPE svg PUBLIC "-//W3C//DTD SVG 1.1//EN" "http://www.w3.org/Graphics/SVG/1.1/DTD/svg11.dtd">
<svg width="100%" height="100%" viewBox="0 0 24 24" version="1.1" xmlns="http://www.w3.org/2000/svg" xmlns:xlink="http://www.w3.org/1999/xlink" xml:space="preserve" xmlns:serif="http://www.serif.com/" style="fill-rule:evenodd;clip-rule:evenodd;stroke-linejoin:round;stroke-miterlimit:2;">
    <g transform="matrix(1,0,0,1,2,2)">
        <path d="M1.443,3.595L3.939,1.101C4.244,0.796 4.652,0.625 5.083,0.625C5.514,0.625 5.922,0.794 6.227,1.101L8.915,3.784C9.22,4.089 9.391,4.499 9.391,4.93C9.391,5.364 9.222,5.77 8.915,6.077L6.815,8.179C7.293,9.294 7.981,10.306 8.84,11.163C9.7,12.027 10.706,12.709 11.821,13.192L13.921,11.09C14.226,10.785 14.634,10.614 15.065,10.614C15.278,10.613 15.488,10.655 15.685,10.737C15.881,10.818 16.059,10.938 16.209,11.09L18.899,13.773C19.204,14.078 19.375,14.488 19.375,14.919C19.375,15.353 19.206,15.759 18.899,16.066L16.406,18.559C15.885,19.08 15.168,19.377 14.432,19.377C14.28,19.377 14.132,19.366 13.982,19.34C10.879,18.829 7.799,17.177 5.313,14.692C2.828,12.203 1.178,9.123 0.662,6.018C0.515,5.137 0.81,4.23 1.443,3.595ZM2.324,5.739C2.781,8.502 4.267,11.259 6.505,13.497C8.744,15.735 11.498,17.221 14.261,17.678C14.608,17.737 14.964,17.62 15.217,17.369L17.666,14.919L15.07,12.32L12.262,15.133L12.241,15.154L11.734,14.966C10.199,14.402 8.805,13.511 7.649,12.354C6.493,11.197 5.602,9.803 5.038,8.268L4.851,7.762L7.682,4.933L5.085,2.334L2.636,4.783C2.383,5.036 2.266,5.392 2.324,5.739Z" style="fill:rgb(153,153,153);fill-rule:nonzero;"/>
    </g>
</svg>
