<?xml version="1.0" encoding="UTF-8" standalone="no"?>
<!DOCTYPE svg PUBLIC "-//W3C//DTD SVG 1.1//EN" "http://www.w3.org/Graphics/SVG/1.1/DTD/svg11.dtd">
<svg width="100%" height="100%" viewBox="0 0 24 24" version="1.1" xmlns="http://www.w3.org/2000/svg" xmlns:xlink="http://www.w3.org/1999/xlink" xml:space="preserve" xmlns:serif="http://www.serif.com/" style="fill-rule:evenodd;clip-rule:evenodd;stroke-linejoin:round;stroke-miterlimit:2;">
    <path d="M12,6L13.434,8.777L16.5,9.223L14.25,11.25L15,14.25L12,12.563L9,14.25L9.75,11.25L7.5,9.223L10.65,8.777L12,6Z" style="fill:rgb(153,153,153);fill-rule:nonzero;"/>
    <path d="M12.102,22.5L10.8,21.75L13.8,16.5L19.5,16.5C19.697,16.5 19.892,16.462 20.074,16.386C20.257,16.311 20.422,16.201 20.561,16.061C20.701,15.922 20.811,15.757 20.886,15.574C20.962,15.392 21,15.197 21,15L21,6C21,5.803 20.962,5.608 20.886,5.426C20.811,5.244 20.701,5.078 20.561,4.939C20.422,4.799 20.257,4.689 20.074,4.614C19.892,4.538 19.697,4.5 19.5,4.5L4.5,4.5C4.303,4.5 4.108,4.538 3.926,4.614C3.744,4.689 3.578,4.799 3.439,4.939C3.299,5.078 3.189,5.244 3.114,5.426C3.038,5.608 3,5.803 3,6L3,15C3,15.197 3.038,15.392 3.114,15.574C3.189,15.757 3.299,15.922 3.439,16.061C3.578,16.201 3.744,16.311 3.926,16.386C4.108,16.462 4.303,16.5 4.5,16.5L10.8,16.5L11.702,20.172L10.8,21.75L9.6,18L4.5,18C3.704,18 2.941,17.684 2.379,17.121C1.816,16.559 1.5,15.796 1.5,15L1.5,6C1.5,5.606 1.577,5.216 1.728,4.852C1.879,4.488 2.1,4.157 2.378,3.878C2.657,3.6 2.988,3.379 3.352,3.228C3.716,3.077 4.106,3 4.5,3L19.5,3C19.894,3 20.284,3.077 20.648,3.228C21.012,3.379 21.343,3.6 21.622,3.878C21.9,4.157 22.121,4.488 22.272,4.852C22.423,5.216 22.5,5.606 22.5,6L22.5,15C22.5,15.796 22.184,16.559 21.621,17.121C21.059,17.684 20.296,18 19.5,18L14.674,18L12.102,22.5Z" style="fill:rgb(153,153,153);fill-rule:nonzero;"/>
    <path d="M9.485,18.011L4.502,18.011C2.845,18.011 1.5,16.665 1.5,15.008L1.5,6.002C1.5,4.345 2.845,3 4.502,3L19.498,3C21.155,3 22.5,4.345 22.5,6.002L22.5,15.008C22.5,16.665 21.155,18.011 19.498,18.011L14.743,18.011L12.238,22.545C12.071,22.848 11.737,23.019 11.393,22.978C11.05,22.937 10.766,22.692 10.674,22.358L9.485,18.011ZM11.762,19.891L13.753,16.311L19.498,16.311C20.217,16.311 20.8,15.727 20.8,15.008L20.8,6.002C20.8,5.283 20.217,4.7 19.498,4.7C19.498,4.7 4.502,4.7 4.502,4.7C3.783,4.7 3.2,5.283 3.2,6.002C3.2,6.002 3.2,15.008 3.2,15.008C3.2,15.727 3.783,16.311 4.502,16.311L10.792,16.311L11.247,18.011L11.762,19.891Z" style="fill:rgb(153,153,153);"/>
</svg>
